<svg width="48" height="48" viewBox="0 0 48 48" fill="none" xmlns="http://www.w3.org/2000/svg">
<path d="M3.65996 35.1375C1.51496 26.5575 0.442459 22.27 2.69496 19.385C4.94496 16.5 9.36996 16.5 18.2125 16.5H29.7875C38.6325 16.5 43.0525 16.5 45.305 19.385C47.5575 22.2675 46.485 26.56 44.34 35.1375C42.975 40.595 42.295 43.3225 40.26 44.9125C38.225 46.5 35.4125 46.5 29.7875 46.5H18.2125C12.5875 46.5 9.77496 46.5 7.73996 44.9125C5.70496 43.3225 5.02246 40.595 3.65996 35.1375Z" stroke="#222222" stroke-width="1.875"/>
<path opacity="0.5" d="M42.75 17.75L40.975 11.2375C40.29 8.725 39.9475 7.47 39.245 6.5225C38.5446 5.58116 37.5933 4.85601 36.5 4.43C35.4 4 34.1 4 31.5 4M5.25 17.75L7.025 11.2375C7.71 8.725 8.0525 7.47 8.755 6.5225C9.45544 5.58116 10.4067 4.85601 11.5 4.43C12.6 4 13.9 4 16.5 4" stroke="#222222" stroke-width="1.875"/>
<path d="M16.5 4C16.5 3.33696 16.7634 2.70107 17.2322 2.23223C17.7011 1.76339 18.337 1.5 19 1.5H29C29.663 1.5 30.2989 1.76339 30.7678 2.23223C31.2366 2.70107 31.5 3.33696 31.5 4C31.5 4.66304 31.2366 5.29893 30.7678 5.76777C30.2989 6.23661 29.663 6.5 29 6.5H19C18.337 6.5 17.7011 6.23661 17.2322 5.76777C16.7634 5.29893 16.5 4.66304 16.5 4Z" stroke="#222222" stroke-width="1.875"/>
</svg>
